<mxfile host="app.diagrams.net" modified="2024-04-25T07:58:21.671Z" agent="Mozilla/5.0 (Windows NT 10.0; Win64; x64) AppleWebKit/537.36 (KHTML, like Gecko) Chrome/124.0.0.0 Safari/537.36" etag="D006DRTfNKtnZFul8Ofe" version="24.2.5" type="google">
  <diagram id="C5RBs43oDa-KdzZeNtuy" name="Page-1">
    <mxGraphModel grid="1" page="1" gridSize="10" guides="1" tooltips="1" connect="1" arrows="1" fold="1" pageScale="1" pageWidth="827" pageHeight="1169" math="0" shadow="0">
      <root>
        <mxCell id="WIyWlLk6GJQsqaUBKTNV-0" />
        <mxCell id="WIyWlLk6GJQsqaUBKTNV-1" parent="WIyWlLk6GJQsqaUBKTNV-0" />
        <mxCell id="WIyWlLk6GJQsqaUBKTNV-2" value="" style="rounded=0;html=1;jettySize=auto;orthogonalLoop=1;fontSize=11;endArrow=block;endFill=0;endSize=8;strokeWidth=1;shadow=0;labelBackgroundColor=none;edgeStyle=orthogonalEdgeStyle;" edge="1" parent="WIyWlLk6GJQsqaUBKTNV-1" source="WIyWlLk6GJQsqaUBKTNV-3" target="WIyWlLk6GJQsqaUBKTNV-6">
          <mxGeometry relative="1" as="geometry" />
        </mxCell>
        <mxCell id="WIyWlLk6GJQsqaUBKTNV-3" value="Show User Prompt" style="rounded=1;whiteSpace=wrap;html=1;fontSize=12;glass=0;strokeWidth=1;shadow=0;labelBackgroundColor=none;" vertex="1" parent="WIyWlLk6GJQsqaUBKTNV-1">
          <mxGeometry x="350" y="120" width="120" height="40" as="geometry" />
        </mxCell>
        <mxCell id="WIyWlLk6GJQsqaUBKTNV-4" value="Yes" style="rounded=0;html=1;jettySize=auto;orthogonalLoop=1;fontSize=11;endArrow=block;endFill=0;endSize=8;strokeWidth=1;shadow=0;labelBackgroundColor=none;edgeStyle=orthogonalEdgeStyle;entryX=0.425;entryY=-0.1;entryDx=0;entryDy=0;entryPerimeter=0;" edge="1" parent="WIyWlLk6GJQsqaUBKTNV-1" source="WIyWlLk6GJQsqaUBKTNV-6" target="WIyWlLk6GJQsqaUBKTNV-12">
          <mxGeometry y="20" relative="1" as="geometry">
            <mxPoint as="offset" />
            <mxPoint x="410" y="290" as="targetPoint" />
          </mxGeometry>
        </mxCell>
        <mxCell id="WIyWlLk6GJQsqaUBKTNV-5" value="No" style="edgeStyle=orthogonalEdgeStyle;rounded=0;html=1;jettySize=auto;orthogonalLoop=1;fontSize=11;endArrow=block;endFill=0;endSize=8;strokeWidth=1;shadow=0;labelBackgroundColor=none;" edge="1" parent="WIyWlLk6GJQsqaUBKTNV-1" source="WIyWlLk6GJQsqaUBKTNV-6" target="WIyWlLk6GJQsqaUBKTNV-7">
          <mxGeometry y="10" relative="1" as="geometry">
            <mxPoint as="offset" />
          </mxGeometry>
        </mxCell>
        <mxCell id="WIyWlLk6GJQsqaUBKTNV-6" value="User input received?" style="rhombus;whiteSpace=wrap;html=1;shadow=0;fontFamily=Helvetica;fontSize=12;align=center;strokeWidth=1;spacing=6;spacingTop=-4;labelBackgroundColor=none;" vertex="1" parent="WIyWlLk6GJQsqaUBKTNV-1">
          <mxGeometry x="360" y="190" width="100" height="80" as="geometry" />
        </mxCell>
        <mxCell id="WIyWlLk6GJQsqaUBKTNV-7" value="Do Nothing" style="rounded=1;whiteSpace=wrap;html=1;fontSize=12;glass=0;strokeWidth=1;shadow=0;labelBackgroundColor=none;" vertex="1" parent="WIyWlLk6GJQsqaUBKTNV-1">
          <mxGeometry x="500" y="210" width="120" height="40" as="geometry" />
        </mxCell>
        <mxCell id="-5-lg3vxzKMAGFxPIcZ8-8" style="edgeStyle=orthogonalEdgeStyle;rounded=0;orthogonalLoop=1;jettySize=auto;html=1;labelBackgroundColor=none;" edge="1" parent="WIyWlLk6GJQsqaUBKTNV-1" source="WIyWlLk6GJQsqaUBKTNV-11" target="-5-lg3vxzKMAGFxPIcZ8-7">
          <mxGeometry relative="1" as="geometry" />
        </mxCell>
        <mxCell id="WIyWlLk6GJQsqaUBKTNV-11" value="&#39;Q&#39; or &#39;q&#39;" style="rounded=1;whiteSpace=wrap;html=1;fontSize=12;glass=0;strokeWidth=1;shadow=0;labelBackgroundColor=none;" vertex="1" parent="WIyWlLk6GJQsqaUBKTNV-1">
          <mxGeometry x="580" y="400" width="120" height="40" as="geometry" />
        </mxCell>
        <mxCell id="-5-lg3vxzKMAGFxPIcZ8-25" style="edgeStyle=orthogonalEdgeStyle;rounded=0;orthogonalLoop=1;jettySize=auto;html=1;entryX=0.5;entryY=0;entryDx=0;entryDy=0;exitX=0.5;exitY=1;exitDx=0;exitDy=0;labelBackgroundColor=none;" edge="1" parent="WIyWlLk6GJQsqaUBKTNV-1" source="WIyWlLk6GJQsqaUBKTNV-12" target="-5-lg3vxzKMAGFxPIcZ8-3">
          <mxGeometry relative="1" as="geometry" />
        </mxCell>
        <mxCell id="-5-lg3vxzKMAGFxPIcZ8-27" style="edgeStyle=orthogonalEdgeStyle;rounded=0;orthogonalLoop=1;jettySize=auto;html=1;entryX=0.5;entryY=0;entryDx=0;entryDy=0;labelBackgroundColor=none;" edge="1" parent="WIyWlLk6GJQsqaUBKTNV-1" source="WIyWlLk6GJQsqaUBKTNV-12" target="-5-lg3vxzKMAGFxPIcZ8-1">
          <mxGeometry relative="1" as="geometry" />
        </mxCell>
        <mxCell id="-5-lg3vxzKMAGFxPIcZ8-28" style="edgeStyle=orthogonalEdgeStyle;rounded=0;orthogonalLoop=1;jettySize=auto;html=1;exitX=0.5;exitY=1;exitDx=0;exitDy=0;labelBackgroundColor=none;" edge="1" parent="WIyWlLk6GJQsqaUBKTNV-1" source="WIyWlLk6GJQsqaUBKTNV-12" target="WIyWlLk6GJQsqaUBKTNV-11">
          <mxGeometry relative="1" as="geometry" />
        </mxCell>
        <mxCell id="-5-lg3vxzKMAGFxPIcZ8-47" style="edgeStyle=orthogonalEdgeStyle;rounded=0;orthogonalLoop=1;jettySize=auto;html=1;entryX=0.5;entryY=0;entryDx=0;entryDy=0;exitX=0.5;exitY=1;exitDx=0;exitDy=0;labelBackgroundColor=none;" edge="1" parent="WIyWlLk6GJQsqaUBKTNV-1" source="WIyWlLk6GJQsqaUBKTNV-12" target="-5-lg3vxzKMAGFxPIcZ8-46">
          <mxGeometry relative="1" as="geometry" />
        </mxCell>
        <mxCell id="-5-lg3vxzKMAGFxPIcZ8-90" style="edgeStyle=orthogonalEdgeStyle;rounded=0;orthogonalLoop=1;jettySize=auto;html=1;entryX=0.5;entryY=0;entryDx=0;entryDy=0;" edge="1" parent="WIyWlLk6GJQsqaUBKTNV-1" source="WIyWlLk6GJQsqaUBKTNV-12" target="-5-lg3vxzKMAGFxPIcZ8-86">
          <mxGeometry relative="1" as="geometry">
            <Array as="points">
              <mxPoint x="419" y="370" />
              <mxPoint x="800" y="370" />
            </Array>
          </mxGeometry>
        </mxCell>
        <mxCell id="WIyWlLk6GJQsqaUBKTNV-12" value="Switch Entry" style="rounded=1;whiteSpace=wrap;html=1;fontSize=12;glass=0;strokeWidth=1;shadow=0;labelBackgroundColor=none;" vertex="1" parent="WIyWlLk6GJQsqaUBKTNV-1">
          <mxGeometry x="359" y="299" width="120" height="40" as="geometry" />
        </mxCell>
        <mxCell id="-5-lg3vxzKMAGFxPIcZ8-50" style="edgeStyle=orthogonalEdgeStyle;rounded=0;orthogonalLoop=1;jettySize=auto;html=1;entryX=0.5;entryY=0;entryDx=0;entryDy=0;labelBackgroundColor=none;" edge="1" parent="WIyWlLk6GJQsqaUBKTNV-1" source="-5-lg3vxzKMAGFxPIcZ8-1" target="-5-lg3vxzKMAGFxPIcZ8-49">
          <mxGeometry relative="1" as="geometry" />
        </mxCell>
        <mxCell id="-5-lg3vxzKMAGFxPIcZ8-1" value="&#39;E&#39; or &#39;e&#39;" style="rounded=1;whiteSpace=wrap;html=1;fontSize=12;glass=0;strokeWidth=1;shadow=0;labelBackgroundColor=none;" vertex="1" parent="WIyWlLk6GJQsqaUBKTNV-1">
          <mxGeometry x="270" y="400" width="120" height="40" as="geometry" />
        </mxCell>
        <mxCell id="-5-lg3vxzKMAGFxPIcZ8-48" style="edgeStyle=orthogonalEdgeStyle;rounded=0;orthogonalLoop=1;jettySize=auto;html=1;entryX=0.5;entryY=0;entryDx=0;entryDy=0;labelBackgroundColor=none;" edge="1" parent="WIyWlLk6GJQsqaUBKTNV-1" source="-5-lg3vxzKMAGFxPIcZ8-2" target="-5-lg3vxzKMAGFxPIcZ8-29">
          <mxGeometry relative="1" as="geometry" />
        </mxCell>
        <mxCell id="-5-lg3vxzKMAGFxPIcZ8-2" value="&#39;S&#39; or &#39;s&#39;" style="rounded=1;whiteSpace=wrap;html=1;fontSize=12;glass=0;strokeWidth=1;shadow=0;labelBackgroundColor=none;" vertex="1" parent="WIyWlLk6GJQsqaUBKTNV-1">
          <mxGeometry x="120" y="400" width="120" height="40" as="geometry" />
        </mxCell>
        <mxCell id="-5-lg3vxzKMAGFxPIcZ8-12" style="edgeStyle=orthogonalEdgeStyle;rounded=0;orthogonalLoop=1;jettySize=auto;html=1;entryX=0.5;entryY=0;entryDx=0;entryDy=0;labelBackgroundColor=none;" edge="1" parent="WIyWlLk6GJQsqaUBKTNV-1" source="-5-lg3vxzKMAGFxPIcZ8-3" target="-5-lg3vxzKMAGFxPIcZ8-11">
          <mxGeometry relative="1" as="geometry" />
        </mxCell>
        <mxCell id="-5-lg3vxzKMAGFxPIcZ8-3" value="&#39;A&#39; or &#39;a&#39;" style="rounded=1;whiteSpace=wrap;html=1;fontSize=12;glass=0;strokeWidth=1;shadow=0;labelBackgroundColor=none;" vertex="1" parent="WIyWlLk6GJQsqaUBKTNV-1">
          <mxGeometry x="-30" y="400" width="120" height="40" as="geometry" />
        </mxCell>
        <mxCell id="-5-lg3vxzKMAGFxPIcZ8-38" style="edgeStyle=orthogonalEdgeStyle;rounded=0;orthogonalLoop=1;jettySize=auto;html=1;entryX=0.5;entryY=0;entryDx=0;entryDy=0;labelBackgroundColor=none;" edge="1" parent="WIyWlLk6GJQsqaUBKTNV-1" source="-5-lg3vxzKMAGFxPIcZ8-4" target="-5-lg3vxzKMAGFxPIcZ8-37">
          <mxGeometry relative="1" as="geometry" />
        </mxCell>
        <mxCell id="-5-lg3vxzKMAGFxPIcZ8-4" value="Anything else" style="rounded=1;whiteSpace=wrap;html=1;fontSize=12;glass=0;strokeWidth=1;shadow=0;labelBackgroundColor=none;" vertex="1" parent="WIyWlLk6GJQsqaUBKTNV-1">
          <mxGeometry x="880" y="405" width="120" height="40" as="geometry" />
        </mxCell>
        <mxCell id="-5-lg3vxzKMAGFxPIcZ8-6" style="edgeStyle=orthogonalEdgeStyle;rounded=0;orthogonalLoop=1;jettySize=auto;html=1;entryX=0.567;entryY=0.05;entryDx=0;entryDy=0;entryPerimeter=0;exitX=0.5;exitY=1;exitDx=0;exitDy=0;labelBackgroundColor=none;" edge="1" parent="WIyWlLk6GJQsqaUBKTNV-1" source="WIyWlLk6GJQsqaUBKTNV-12" target="-5-lg3vxzKMAGFxPIcZ8-4">
          <mxGeometry relative="1" as="geometry">
            <Array as="points">
              <mxPoint x="419" y="370" />
              <mxPoint x="948" y="370" />
            </Array>
          </mxGeometry>
        </mxCell>
        <mxCell id="-5-lg3vxzKMAGFxPIcZ8-10" style="edgeStyle=orthogonalEdgeStyle;rounded=0;orthogonalLoop=1;jettySize=auto;html=1;entryX=0.5;entryY=0;entryDx=0;entryDy=0;labelBackgroundColor=none;" edge="1" parent="WIyWlLk6GJQsqaUBKTNV-1" source="-5-lg3vxzKMAGFxPIcZ8-7" target="-5-lg3vxzKMAGFxPIcZ8-9">
          <mxGeometry relative="1" as="geometry" />
        </mxCell>
        <mxCell id="-5-lg3vxzKMAGFxPIcZ8-7" value="Show bye message&lt;div&gt;and quit program&lt;/div&gt;" style="rounded=1;whiteSpace=wrap;html=1;fontSize=12;glass=0;strokeWidth=1;shadow=0;labelBackgroundColor=none;" vertex="1" parent="WIyWlLk6GJQsqaUBKTNV-1">
          <mxGeometry x="580" y="480" width="120" height="40" as="geometry" />
        </mxCell>
        <mxCell id="-5-lg3vxzKMAGFxPIcZ8-9" value="End" style="ellipse;whiteSpace=wrap;html=1;labelBackgroundColor=none;" vertex="1" parent="WIyWlLk6GJQsqaUBKTNV-1">
          <mxGeometry x="620" y="550" width="40" height="35" as="geometry" />
        </mxCell>
        <mxCell id="-5-lg3vxzKMAGFxPIcZ8-15" style="edgeStyle=orthogonalEdgeStyle;rounded=0;orthogonalLoop=1;jettySize=auto;html=1;labelBackgroundColor=none;" edge="1" parent="WIyWlLk6GJQsqaUBKTNV-1" source="-5-lg3vxzKMAGFxPIcZ8-11" target="-5-lg3vxzKMAGFxPIcZ8-13">
          <mxGeometry relative="1" as="geometry" />
        </mxCell>
        <mxCell id="-5-lg3vxzKMAGFxPIcZ8-11" value="Prompt for each Contact field&amp;nbsp;" style="rounded=1;whiteSpace=wrap;html=1;fontSize=12;glass=0;strokeWidth=1;shadow=0;labelBackgroundColor=none;" vertex="1" parent="WIyWlLk6GJQsqaUBKTNV-1">
          <mxGeometry x="-30" y="480" width="120" height="40" as="geometry" />
        </mxCell>
        <mxCell id="-5-lg3vxzKMAGFxPIcZ8-17" style="edgeStyle=orthogonalEdgeStyle;rounded=0;orthogonalLoop=1;jettySize=auto;html=1;labelBackgroundColor=none;" edge="1" parent="WIyWlLk6GJQsqaUBKTNV-1" source="-5-lg3vxzKMAGFxPIcZ8-13" target="-5-lg3vxzKMAGFxPIcZ8-16">
          <mxGeometry relative="1" as="geometry" />
        </mxCell>
        <mxCell id="-5-lg3vxzKMAGFxPIcZ8-13" value="Display formatted contact to user and wait for user entry" style="rounded=1;whiteSpace=wrap;html=1;fontSize=12;glass=0;strokeWidth=1;shadow=0;labelBackgroundColor=none;" vertex="1" parent="WIyWlLk6GJQsqaUBKTNV-1">
          <mxGeometry x="-30" y="550" width="120" height="40" as="geometry" />
        </mxCell>
        <mxCell id="-5-lg3vxzKMAGFxPIcZ8-74" style="edgeStyle=orthogonalEdgeStyle;rounded=0;orthogonalLoop=1;jettySize=auto;html=1;labelBackgroundColor=none;" edge="1" parent="WIyWlLk6GJQsqaUBKTNV-1" source="-5-lg3vxzKMAGFxPIcZ8-14" target="-5-lg3vxzKMAGFxPIcZ8-73">
          <mxGeometry relative="1" as="geometry" />
        </mxCell>
        <mxCell id="-5-lg3vxzKMAGFxPIcZ8-14" value="Save new contact" style="rounded=1;whiteSpace=wrap;html=1;fontSize=12;glass=0;strokeWidth=1;shadow=0;labelBackgroundColor=none;" vertex="1" parent="WIyWlLk6GJQsqaUBKTNV-1">
          <mxGeometry x="-30" y="900" width="120" height="40" as="geometry" />
        </mxCell>
        <mxCell id="-5-lg3vxzKMAGFxPIcZ8-19" value="Yes" style="edgeStyle=orthogonalEdgeStyle;rounded=0;orthogonalLoop=1;jettySize=auto;html=1;labelBackgroundColor=none;" edge="1" parent="WIyWlLk6GJQsqaUBKTNV-1" source="-5-lg3vxzKMAGFxPIcZ8-16" target="-5-lg3vxzKMAGFxPIcZ8-32">
          <mxGeometry relative="1" as="geometry" />
        </mxCell>
        <mxCell id="-5-lg3vxzKMAGFxPIcZ8-76" value="No" style="edgeStyle=orthogonalEdgeStyle;rounded=0;orthogonalLoop=1;jettySize=auto;html=1;exitX=0;exitY=0.5;exitDx=0;exitDy=0;entryX=1;entryY=0.5;entryDx=0;entryDy=0;labelBackgroundColor=none;" edge="1" parent="WIyWlLk6GJQsqaUBKTNV-1" source="-5-lg3vxzKMAGFxPIcZ8-16" target="-5-lg3vxzKMAGFxPIcZ8-75">
          <mxGeometry relative="1" as="geometry">
            <mxPoint x="-60" y="670" as="targetPoint" />
          </mxGeometry>
        </mxCell>
        <mxCell id="-5-lg3vxzKMAGFxPIcZ8-16" value="User input received?" style="rhombus;whiteSpace=wrap;html=1;shadow=0;fontFamily=Helvetica;fontSize=12;align=center;strokeWidth=1;spacing=6;spacingTop=-4;labelBackgroundColor=none;" vertex="1" parent="WIyWlLk6GJQsqaUBKTNV-1">
          <mxGeometry x="-20" y="630" width="100" height="80" as="geometry" />
        </mxCell>
        <mxCell id="-5-lg3vxzKMAGFxPIcZ8-20" style="edgeStyle=orthogonalEdgeStyle;rounded=0;orthogonalLoop=1;jettySize=auto;html=1;entryX=0.5;entryY=0;entryDx=0;entryDy=0;labelBackgroundColor=none;" edge="1" parent="WIyWlLk6GJQsqaUBKTNV-1" source="-5-lg3vxzKMAGFxPIcZ8-18" target="-5-lg3vxzKMAGFxPIcZ8-14">
          <mxGeometry relative="1" as="geometry" />
        </mxCell>
        <mxCell id="-5-lg3vxzKMAGFxPIcZ8-18" value="&#39;Y&#39; or &#39;y&#39;" style="rounded=1;whiteSpace=wrap;html=1;fontSize=12;glass=0;strokeWidth=1;shadow=0;labelBackgroundColor=none;" vertex="1" parent="WIyWlLk6GJQsqaUBKTNV-1">
          <mxGeometry x="-30" y="840" width="120" height="40" as="geometry" />
        </mxCell>
        <mxCell id="-5-lg3vxzKMAGFxPIcZ8-40" style="edgeStyle=orthogonalEdgeStyle;rounded=0;orthogonalLoop=1;jettySize=auto;html=1;entryX=0.5;entryY=0;entryDx=0;entryDy=0;labelBackgroundColor=none;" edge="1" parent="WIyWlLk6GJQsqaUBKTNV-1" source="-5-lg3vxzKMAGFxPIcZ8-22" target="-5-lg3vxzKMAGFxPIcZ8-39">
          <mxGeometry relative="1" as="geometry" />
        </mxCell>
        <mxCell id="-5-lg3vxzKMAGFxPIcZ8-22" value="Anything else" style="rounded=1;whiteSpace=wrap;html=1;fontSize=12;glass=0;strokeWidth=1;shadow=0;labelBackgroundColor=none;" vertex="1" parent="WIyWlLk6GJQsqaUBKTNV-1">
          <mxGeometry x="-160" y="840" width="120" height="40" as="geometry" />
        </mxCell>
        <mxCell id="-5-lg3vxzKMAGFxPIcZ8-26" style="edgeStyle=orthogonalEdgeStyle;rounded=0;orthogonalLoop=1;jettySize=auto;html=1;entryX=0.575;entryY=0.025;entryDx=0;entryDy=0;entryPerimeter=0;exitX=0.5;exitY=1;exitDx=0;exitDy=0;labelBackgroundColor=none;" edge="1" parent="WIyWlLk6GJQsqaUBKTNV-1" source="WIyWlLk6GJQsqaUBKTNV-12" target="-5-lg3vxzKMAGFxPIcZ8-2">
          <mxGeometry relative="1" as="geometry" />
        </mxCell>
        <mxCell id="-5-lg3vxzKMAGFxPIcZ8-31" style="edgeStyle=orthogonalEdgeStyle;rounded=0;orthogonalLoop=1;jettySize=auto;html=1;entryX=0.5;entryY=0;entryDx=0;entryDy=0;labelBackgroundColor=none;" edge="1" parent="WIyWlLk6GJQsqaUBKTNV-1" source="-5-lg3vxzKMAGFxPIcZ8-29">
          <mxGeometry relative="1" as="geometry">
            <mxPoint x="180" y="550" as="targetPoint" />
          </mxGeometry>
        </mxCell>
        <mxCell id="-5-lg3vxzKMAGFxPIcZ8-29" value="Display search prompt and wait for user entry" style="rounded=1;whiteSpace=wrap;html=1;fontSize=12;glass=0;strokeWidth=1;shadow=0;labelBackgroundColor=none;" vertex="1" parent="WIyWlLk6GJQsqaUBKTNV-1">
          <mxGeometry x="120" y="480" width="120" height="40" as="geometry" />
        </mxCell>
        <mxCell id="-5-lg3vxzKMAGFxPIcZ8-33" style="edgeStyle=orthogonalEdgeStyle;rounded=0;orthogonalLoop=1;jettySize=auto;html=1;entryX=0.5;entryY=0;entryDx=0;entryDy=0;labelBackgroundColor=none;" edge="1" parent="WIyWlLk6GJQsqaUBKTNV-1" source="-5-lg3vxzKMAGFxPIcZ8-32" target="-5-lg3vxzKMAGFxPIcZ8-18">
          <mxGeometry relative="1" as="geometry" />
        </mxCell>
        <mxCell id="-5-lg3vxzKMAGFxPIcZ8-34" style="edgeStyle=orthogonalEdgeStyle;rounded=0;orthogonalLoop=1;jettySize=auto;html=1;exitX=0.5;exitY=1;exitDx=0;exitDy=0;labelBackgroundColor=none;" edge="1" parent="WIyWlLk6GJQsqaUBKTNV-1" source="-5-lg3vxzKMAGFxPIcZ8-32" target="-5-lg3vxzKMAGFxPIcZ8-22">
          <mxGeometry relative="1" as="geometry" />
        </mxCell>
        <mxCell id="-5-lg3vxzKMAGFxPIcZ8-32" value="Switch Entry" style="rounded=1;whiteSpace=wrap;html=1;fontSize=12;glass=0;strokeWidth=1;shadow=0;labelBackgroundColor=none;" vertex="1" parent="WIyWlLk6GJQsqaUBKTNV-1">
          <mxGeometry x="-30" y="760" width="120" height="40" as="geometry" />
        </mxCell>
        <mxCell id="-5-lg3vxzKMAGFxPIcZ8-36" style="edgeStyle=orthogonalEdgeStyle;rounded=0;orthogonalLoop=1;jettySize=auto;html=1;entryX=0.5;entryY=0;entryDx=0;entryDy=0;labelBackgroundColor=none;" edge="1" parent="WIyWlLk6GJQsqaUBKTNV-1" source="-5-lg3vxzKMAGFxPIcZ8-35" target="WIyWlLk6GJQsqaUBKTNV-3">
          <mxGeometry relative="1" as="geometry" />
        </mxCell>
        <mxCell id="-5-lg3vxzKMAGFxPIcZ8-35" value="Start" style="ellipse;whiteSpace=wrap;html=1;labelBackgroundColor=none;" vertex="1" parent="WIyWlLk6GJQsqaUBKTNV-1">
          <mxGeometry x="390" y="60" width="40" height="35" as="geometry" />
        </mxCell>
        <mxCell id="-5-lg3vxzKMAGFxPIcZ8-37" value="Start" style="ellipse;whiteSpace=wrap;html=1;labelBackgroundColor=none;" vertex="1" parent="WIyWlLk6GJQsqaUBKTNV-1">
          <mxGeometry x="920" y="485" width="40" height="35" as="geometry" />
        </mxCell>
        <mxCell id="-5-lg3vxzKMAGFxPIcZ8-39" value="Start" style="ellipse;whiteSpace=wrap;html=1;labelBackgroundColor=none;" vertex="1" parent="WIyWlLk6GJQsqaUBKTNV-1">
          <mxGeometry x="-120" y="920" width="40" height="35" as="geometry" />
        </mxCell>
        <mxCell id="-5-lg3vxzKMAGFxPIcZ8-43" style="edgeStyle=orthogonalEdgeStyle;rounded=0;orthogonalLoop=1;jettySize=auto;html=1;entryX=0.5;entryY=0;entryDx=0;entryDy=0;labelBackgroundColor=none;" edge="1" parent="WIyWlLk6GJQsqaUBKTNV-1" source="-5-lg3vxzKMAGFxPIcZ8-41" target="-5-lg3vxzKMAGFxPIcZ8-42">
          <mxGeometry relative="1" as="geometry" />
        </mxCell>
        <mxCell id="-5-lg3vxzKMAGFxPIcZ8-41" value="Search Contacts for match on full name." style="rounded=1;whiteSpace=wrap;html=1;fontSize=12;glass=0;strokeWidth=1;shadow=0;labelBackgroundColor=none;" vertex="1" parent="WIyWlLk6GJQsqaUBKTNV-1">
          <mxGeometry x="120" y="550" width="120" height="40" as="geometry" />
        </mxCell>
        <mxCell id="-5-lg3vxzKMAGFxPIcZ8-45" style="edgeStyle=orthogonalEdgeStyle;rounded=0;orthogonalLoop=1;jettySize=auto;html=1;entryX=0.5;entryY=0;entryDx=0;entryDy=0;labelBackgroundColor=none;" edge="1" parent="WIyWlLk6GJQsqaUBKTNV-1" source="-5-lg3vxzKMAGFxPIcZ8-42" target="-5-lg3vxzKMAGFxPIcZ8-44">
          <mxGeometry relative="1" as="geometry" />
        </mxCell>
        <mxCell id="-5-lg3vxzKMAGFxPIcZ8-42" value="&lt;div&gt;Display results to user and wait for any user entry&lt;/div&gt;" style="rounded=1;whiteSpace=wrap;html=1;fontSize=12;glass=0;strokeWidth=1;shadow=0;labelBackgroundColor=none;" vertex="1" parent="WIyWlLk6GJQsqaUBKTNV-1">
          <mxGeometry x="120" y="630" width="120" height="40" as="geometry" />
        </mxCell>
        <mxCell id="-5-lg3vxzKMAGFxPIcZ8-44" value="Start" style="ellipse;whiteSpace=wrap;html=1;labelBackgroundColor=none;" vertex="1" parent="WIyWlLk6GJQsqaUBKTNV-1">
          <mxGeometry x="160" y="710" width="40" height="35" as="geometry" />
        </mxCell>
        <mxCell id="-5-lg3vxzKMAGFxPIcZ8-60" style="edgeStyle=orthogonalEdgeStyle;rounded=0;orthogonalLoop=1;jettySize=auto;html=1;labelBackgroundColor=none;" edge="1" parent="WIyWlLk6GJQsqaUBKTNV-1" source="-5-lg3vxzKMAGFxPIcZ8-46" target="-5-lg3vxzKMAGFxPIcZ8-56">
          <mxGeometry relative="1" as="geometry" />
        </mxCell>
        <mxCell id="-5-lg3vxzKMAGFxPIcZ8-46" value="&#39;D&#39; or &#39;d&#39;" style="rounded=1;whiteSpace=wrap;html=1;fontSize=12;glass=0;strokeWidth=1;shadow=0;labelBackgroundColor=none;" vertex="1" parent="WIyWlLk6GJQsqaUBKTNV-1">
          <mxGeometry x="430" y="400" width="120" height="40" as="geometry" />
        </mxCell>
        <mxCell id="-5-lg3vxzKMAGFxPIcZ8-52" style="edgeStyle=orthogonalEdgeStyle;rounded=0;orthogonalLoop=1;jettySize=auto;html=1;entryX=0.5;entryY=0;entryDx=0;entryDy=0;labelBackgroundColor=none;" edge="1" parent="WIyWlLk6GJQsqaUBKTNV-1" source="-5-lg3vxzKMAGFxPIcZ8-49" target="-5-lg3vxzKMAGFxPIcZ8-51">
          <mxGeometry relative="1" as="geometry" />
        </mxCell>
        <mxCell id="-5-lg3vxzKMAGFxPIcZ8-49" value="Prompt for user to enter Id of contact to edit and wait for user entry" style="rounded=1;whiteSpace=wrap;html=1;fontSize=12;glass=0;strokeWidth=1;shadow=0;labelBackgroundColor=none;" vertex="1" parent="WIyWlLk6GJQsqaUBKTNV-1">
          <mxGeometry x="270" y="467.5" width="120" height="60" as="geometry" />
        </mxCell>
        <mxCell id="-5-lg3vxzKMAGFxPIcZ8-65" style="edgeStyle=orthogonalEdgeStyle;rounded=0;orthogonalLoop=1;jettySize=auto;html=1;entryX=0;entryY=0.5;entryDx=0;entryDy=0;labelBackgroundColor=none;" edge="1" parent="WIyWlLk6GJQsqaUBKTNV-1" source="-5-lg3vxzKMAGFxPIcZ8-51" target="-5-lg3vxzKMAGFxPIcZ8-59">
          <mxGeometry relative="1" as="geometry" />
        </mxCell>
        <mxCell id="-5-lg3vxzKMAGFxPIcZ8-51" value="User input received?" style="rhombus;whiteSpace=wrap;html=1;shadow=0;fontFamily=Helvetica;fontSize=12;align=center;strokeWidth=1;spacing=6;spacingTop=-4;labelBackgroundColor=none;" vertex="1" parent="WIyWlLk6GJQsqaUBKTNV-1">
          <mxGeometry x="280" y="560" width="100" height="80" as="geometry" />
        </mxCell>
        <mxCell id="-5-lg3vxzKMAGFxPIcZ8-55" style="edgeStyle=orthogonalEdgeStyle;rounded=0;orthogonalLoop=1;jettySize=auto;html=1;entryX=0.5;entryY=0;entryDx=0;entryDy=0;labelBackgroundColor=none;" edge="1" parent="WIyWlLk6GJQsqaUBKTNV-1" source="-5-lg3vxzKMAGFxPIcZ8-56" target="-5-lg3vxzKMAGFxPIcZ8-58">
          <mxGeometry relative="1" as="geometry" />
        </mxCell>
        <mxCell id="-5-lg3vxzKMAGFxPIcZ8-56" value="Prompt for user to enter Id of contact to edit and wait for user entry" style="rounded=1;whiteSpace=wrap;html=1;fontSize=12;glass=0;strokeWidth=1;shadow=0;labelBackgroundColor=none;" vertex="1" parent="WIyWlLk6GJQsqaUBKTNV-1">
          <mxGeometry x="430" y="467.5" width="120" height="60" as="geometry" />
        </mxCell>
        <mxCell id="-5-lg3vxzKMAGFxPIcZ8-66" style="edgeStyle=orthogonalEdgeStyle;rounded=0;orthogonalLoop=1;jettySize=auto;html=1;entryX=1;entryY=0.5;entryDx=0;entryDy=0;labelBackgroundColor=none;" edge="1" parent="WIyWlLk6GJQsqaUBKTNV-1" source="-5-lg3vxzKMAGFxPIcZ8-58" target="-5-lg3vxzKMAGFxPIcZ8-59">
          <mxGeometry relative="1" as="geometry" />
        </mxCell>
        <mxCell id="-5-lg3vxzKMAGFxPIcZ8-58" value="User input received?" style="rhombus;whiteSpace=wrap;html=1;shadow=0;fontFamily=Helvetica;fontSize=12;align=center;strokeWidth=1;spacing=6;spacingTop=-4;labelBackgroundColor=none;" vertex="1" parent="WIyWlLk6GJQsqaUBKTNV-1">
          <mxGeometry x="440" y="560" width="100" height="80" as="geometry" />
        </mxCell>
        <mxCell id="-5-lg3vxzKMAGFxPIcZ8-59" value="Try get Contact by Id and Display result to user" style="rounded=1;whiteSpace=wrap;html=1;fontSize=12;glass=0;strokeWidth=1;shadow=0;labelBackgroundColor=none;" vertex="1" parent="WIyWlLk6GJQsqaUBKTNV-1">
          <mxGeometry x="350" y="670" width="120" height="40" as="geometry" />
        </mxCell>
        <mxCell id="-5-lg3vxzKMAGFxPIcZ8-68" value="No" style="edgeStyle=orthogonalEdgeStyle;rounded=0;orthogonalLoop=1;jettySize=auto;html=1;labelBackgroundColor=none;" edge="1" parent="WIyWlLk6GJQsqaUBKTNV-1" source="-5-lg3vxzKMAGFxPIcZ8-61" target="-5-lg3vxzKMAGFxPIcZ8-67">
          <mxGeometry relative="1" as="geometry" />
        </mxCell>
        <mxCell id="-5-lg3vxzKMAGFxPIcZ8-71" value="Yes (Edit)" style="edgeStyle=orthogonalEdgeStyle;rounded=0;orthogonalLoop=1;jettySize=auto;html=1;entryX=0.5;entryY=0;entryDx=0;entryDy=0;labelBackgroundColor=none;" edge="1" parent="WIyWlLk6GJQsqaUBKTNV-1" source="-5-lg3vxzKMAGFxPIcZ8-61" target="-5-lg3vxzKMAGFxPIcZ8-72">
          <mxGeometry relative="1" as="geometry">
            <mxPoint x="320" y="870" as="targetPoint" />
          </mxGeometry>
        </mxCell>
        <mxCell id="-5-lg3vxzKMAGFxPIcZ8-80" value="Yes (delete)" style="edgeStyle=orthogonalEdgeStyle;rounded=0;orthogonalLoop=1;jettySize=auto;html=1;entryX=0.5;entryY=0;entryDx=0;entryDy=0;labelBackgroundColor=none;" edge="1" parent="WIyWlLk6GJQsqaUBKTNV-1" source="-5-lg3vxzKMAGFxPIcZ8-61" target="-5-lg3vxzKMAGFxPIcZ8-79">
          <mxGeometry relative="1" as="geometry">
            <Array as="points">
              <mxPoint x="410" y="840" />
              <mxPoint x="515" y="840" />
            </Array>
          </mxGeometry>
        </mxCell>
        <mxCell id="-5-lg3vxzKMAGFxPIcZ8-61" value="Contact found?" style="rhombus;whiteSpace=wrap;html=1;shadow=0;fontFamily=Helvetica;fontSize=12;align=center;strokeWidth=1;spacing=6;spacingTop=-4;labelBackgroundColor=none;" vertex="1" parent="WIyWlLk6GJQsqaUBKTNV-1">
          <mxGeometry x="360" y="740" width="100" height="80" as="geometry" />
        </mxCell>
        <mxCell id="-5-lg3vxzKMAGFxPIcZ8-64" style="edgeStyle=orthogonalEdgeStyle;rounded=0;orthogonalLoop=1;jettySize=auto;html=1;labelBackgroundColor=none;" edge="1" parent="WIyWlLk6GJQsqaUBKTNV-1" source="-5-lg3vxzKMAGFxPIcZ8-59" target="-5-lg3vxzKMAGFxPIcZ8-61">
          <mxGeometry relative="1" as="geometry" />
        </mxCell>
        <mxCell id="-5-lg3vxzKMAGFxPIcZ8-70" style="edgeStyle=orthogonalEdgeStyle;rounded=0;orthogonalLoop=1;jettySize=auto;html=1;labelBackgroundColor=none;" edge="1" parent="WIyWlLk6GJQsqaUBKTNV-1" source="-5-lg3vxzKMAGFxPIcZ8-67" target="-5-lg3vxzKMAGFxPIcZ8-69">
          <mxGeometry relative="1" as="geometry" />
        </mxCell>
        <mxCell id="-5-lg3vxzKMAGFxPIcZ8-67" value="Display feedback to user" style="rounded=1;whiteSpace=wrap;html=1;fontSize=12;glass=0;strokeWidth=1;shadow=0;labelBackgroundColor=none;" vertex="1" parent="WIyWlLk6GJQsqaUBKTNV-1">
          <mxGeometry x="580" y="760" width="120" height="40" as="geometry" />
        </mxCell>
        <mxCell id="-5-lg3vxzKMAGFxPIcZ8-69" value="Start" style="ellipse;whiteSpace=wrap;html=1;labelBackgroundColor=none;" vertex="1" parent="WIyWlLk6GJQsqaUBKTNV-1">
          <mxGeometry x="620" y="825" width="40" height="35" as="geometry" />
        </mxCell>
        <mxCell id="-5-lg3vxzKMAGFxPIcZ8-78" style="edgeStyle=orthogonalEdgeStyle;rounded=0;orthogonalLoop=1;jettySize=auto;html=1;entryX=0.5;entryY=0;entryDx=0;entryDy=0;labelBackgroundColor=none;" edge="1" parent="WIyWlLk6GJQsqaUBKTNV-1" source="-5-lg3vxzKMAGFxPIcZ8-72" target="-5-lg3vxzKMAGFxPIcZ8-77">
          <mxGeometry relative="1" as="geometry" />
        </mxCell>
        <mxCell id="-5-lg3vxzKMAGFxPIcZ8-72" value="Prompt for each Contact field. Display updated Contact to user&amp;nbsp;" style="rounded=1;whiteSpace=wrap;html=1;fontSize=12;glass=0;strokeWidth=1;shadow=0;labelBackgroundColor=none;" vertex="1" parent="WIyWlLk6GJQsqaUBKTNV-1">
          <mxGeometry x="260" y="860" width="130" height="60" as="geometry" />
        </mxCell>
        <mxCell id="-5-lg3vxzKMAGFxPIcZ8-73" value="Start" style="ellipse;whiteSpace=wrap;html=1;labelBackgroundColor=none;" vertex="1" parent="WIyWlLk6GJQsqaUBKTNV-1">
          <mxGeometry x="10" y="960" width="40" height="35" as="geometry" />
        </mxCell>
        <mxCell id="-5-lg3vxzKMAGFxPIcZ8-75" value="Do Nothing" style="rounded=1;whiteSpace=wrap;html=1;fontSize=12;glass=0;strokeWidth=1;shadow=0;labelBackgroundColor=none;" vertex="1" parent="WIyWlLk6GJQsqaUBKTNV-1">
          <mxGeometry x="-190" y="650" width="120" height="40" as="geometry" />
        </mxCell>
        <mxCell id="-5-lg3vxzKMAGFxPIcZ8-77" value="Start" style="ellipse;whiteSpace=wrap;html=1;labelBackgroundColor=none;" vertex="1" parent="WIyWlLk6GJQsqaUBKTNV-1">
          <mxGeometry x="305" y="940" width="40" height="35" as="geometry" />
        </mxCell>
        <mxCell id="-5-lg3vxzKMAGFxPIcZ8-82" style="edgeStyle=orthogonalEdgeStyle;rounded=0;orthogonalLoop=1;jettySize=auto;html=1;entryX=0.5;entryY=0;entryDx=0;entryDy=0;labelBackgroundColor=none;" edge="1" parent="WIyWlLk6GJQsqaUBKTNV-1" source="-5-lg3vxzKMAGFxPIcZ8-79" target="-5-lg3vxzKMAGFxPIcZ8-81">
          <mxGeometry relative="1" as="geometry" />
        </mxCell>
        <mxCell id="-5-lg3vxzKMAGFxPIcZ8-79" value="Delete Contact" style="rounded=1;whiteSpace=wrap;html=1;fontSize=12;glass=0;strokeWidth=1;shadow=0;labelBackgroundColor=none;" vertex="1" parent="WIyWlLk6GJQsqaUBKTNV-1">
          <mxGeometry x="450" y="860" width="130" height="60" as="geometry" />
        </mxCell>
        <mxCell id="-5-lg3vxzKMAGFxPIcZ8-81" value="Start" style="ellipse;whiteSpace=wrap;html=1;labelBackgroundColor=none;" vertex="1" parent="WIyWlLk6GJQsqaUBKTNV-1">
          <mxGeometry x="495" y="940" width="40" height="35" as="geometry" />
        </mxCell>
        <mxCell id="-5-lg3vxzKMAGFxPIcZ8-85" style="edgeStyle=orthogonalEdgeStyle;rounded=0;orthogonalLoop=1;jettySize=auto;html=1;labelBackgroundColor=none;" edge="1" parent="WIyWlLk6GJQsqaUBKTNV-1" source="-5-lg3vxzKMAGFxPIcZ8-86" target="-5-lg3vxzKMAGFxPIcZ8-88">
          <mxGeometry relative="1" as="geometry" />
        </mxCell>
        <mxCell id="-5-lg3vxzKMAGFxPIcZ8-86" value="&#39;X&#39; or &#39;x&#39;" style="rounded=1;whiteSpace=wrap;html=1;fontSize=12;glass=0;strokeWidth=1;shadow=0;labelBackgroundColor=none;" vertex="1" parent="WIyWlLk6GJQsqaUBKTNV-1">
          <mxGeometry x="740" y="400" width="120" height="40" as="geometry" />
        </mxCell>
        <mxCell id="-5-lg3vxzKMAGFxPIcZ8-87" style="edgeStyle=orthogonalEdgeStyle;rounded=0;orthogonalLoop=1;jettySize=auto;html=1;entryX=0.5;entryY=0;entryDx=0;entryDy=0;labelBackgroundColor=none;" edge="1" parent="WIyWlLk6GJQsqaUBKTNV-1" source="-5-lg3vxzKMAGFxPIcZ8-88" target="-5-lg3vxzKMAGFxPIcZ8-89">
          <mxGeometry relative="1" as="geometry" />
        </mxCell>
        <mxCell id="-5-lg3vxzKMAGFxPIcZ8-88" value="Export to Csv and display feedback" style="rounded=1;whiteSpace=wrap;html=1;fontSize=12;glass=0;strokeWidth=1;shadow=0;labelBackgroundColor=none;" vertex="1" parent="WIyWlLk6GJQsqaUBKTNV-1">
          <mxGeometry x="740" y="480" width="120" height="40" as="geometry" />
        </mxCell>
        <mxCell id="-5-lg3vxzKMAGFxPIcZ8-89" value="Start" style="ellipse;whiteSpace=wrap;html=1;labelBackgroundColor=none;" vertex="1" parent="WIyWlLk6GJQsqaUBKTNV-1">
          <mxGeometry x="780" y="550" width="40" height="35" as="geometry" />
        </mxCell>
      </root>
    </mxGraphModel>
  </diagram>
</mxfile>
